<svg xmlns="http://www.w3.org/2000/svg" viewBox="0 0 3328 896" width="500" height="135" role="img" aria-labelledby="title">
  <title id="title">yyork</title>
  <path fill="#FFFFFF" d="M384 768V512H512V384H640V128H512V384H256V128H128V384H256V768ZM128 896V512H0V0H768V512H640V640H512V896ZM1024 768V512H1152V384H1280V128H1152V384H896V128H768V384H896V768ZM768 896V512H640V0H1408V512H1280V640H1152V896ZM1536 640V256H1792V640ZM1792 768V640H1920V256H1792V128H1536V256H1408V640H1536V768ZM1408 896V768H1280V128H1408V0H1920V128H2048V768H1920V896ZM2176 512V256H2432V512ZM2560 768V640H2432V512H2560V256H2432V128H2048V768H2176V640H2432V768ZM1920 896V0H2560V128H2688V896ZM3200 768V512H3072V256H3200V128H3072V256H2944V384H2816V128H2688V768H2816V512H3072V768ZM2560 896V0H3328V896" />
</svg>
