<svg preserveAspectRatio="none" width="100%" height="100%" overflow="visible" style="display: block;" viewBox="0 0 16 16" fill="none" xmlns="http://www.w3.org/2000/svg">
<g id="Visual Studio">
<path id="Vector" d="M14.5728 2.56213L12.0395 1.69547C11.8715 1.63787 11.6837 1.66827 11.5424 1.77653L5.83147 6.1552L2.9424 4.41067C2.79413 4.32053 2.61173 4.30827 2.4528 4.37813L1.38613 4.8448C1.192 4.9296 1.06667 5.1216 1.06667 5.33333V10.6667C1.06667 10.8784 1.192 11.0704 1.38613 11.1552L2.4528 11.6219C2.6112 11.6917 2.7936 11.6789 2.9424 11.5893L5.83093 9.8448L11.5419 14.2235C11.6363 14.296 11.7509 14.3333 11.8661 14.3333C11.9243 14.3333 11.9824 14.3237 12.0389 14.3045L14.5723 13.4379C14.7883 13.3643 14.9333 13.1616 14.9333 12.9333V3.06667C14.9333 2.8384 14.7883 2.63573 14.5728 2.56213ZM3.2 8.94187V7.05813L4.75893 8L3.2 8.94187ZM11.7333 10.5157L8.02027 8L11.7333 5.48427V10.5157Z" fill="var(--fill-0, #0A0A0A)"/>
</g>
</svg>
